HIERARCHY
ROOT root
{
	OFFSET	0	13.1	24.9
	CHANNELS 6  Xposition Yposition Zposition Xrotation Yrotation Zrotation
	JOINT spine_1
	{
		OFFSET	0	9.99999	0
		CHANNELS 3  Xrotation Yrotation Zrotation
		JOINT spine_2
		{
			OFFSET	0	112	-10
			CHANNELS 3  Xrotation Yrotation Zrotation
			JOINT spine_3
			{
				OFFSET	0	206.5	19.3
				CHANNELS 3  Xrotation Yrotation Zrotation
				JOINT spine_4
				{
					OFFSET	0	110.4	14.6
					CHANNELS 3  Xrotation Yrotation Zrotation
					JOINT neck_1
					{
						OFFSET	0	71.8	-50.3
						CHANNELS 3  Xrotation Yrotation Zrotation
						JOINT neck_2
						{
							OFFSET	0	86.2	-25.8
							CHANNELS 3  Xrotation Yrotation Zrotation
							JOINT head_ee
							{
								OFFSET	0	179.8	-8.7
								CHANNELS 3  Xrotation Yrotation Zrotation
								End Site
								{
									OFFSET	1	0	0
								}
							}
						}
					}
					JOINT left_clavicle
					{
						OFFSET	-43.2	22.4	-70.8
						CHANNELS 3  Xrotation Yrotation Zrotation
						JOINT left_shoulder
						{
							OFFSET	-93.9	-5.79999	48.7
							CHANNELS 3  Xrotation Yrotation Zrotation
							JOINT left_elbow
							{
								OFFSET	-291.4	-30.8	15.2
								CHANNELS 3  Xrotation Yrotation Zrotation
								JOINT left_lowarm_twist
								{
									OFFSET	-110.7	-3.89999	13.6
									CHANNELS 3  Xrotation Yrotation Zrotation
									JOINT left_hand
									{
										OFFSET	-110.7	-3.89999	13.6
										CHANNELS 3  Xrotation Yrotation Zrotation
										JOINT left_ee
										{
											OFFSET	-80.8	-5.10001	12.1
											CHANNELS 3  Xrotation Yrotation Zrotation
											End Site
											{
												OFFSET	1	0	0
											}
										}
									}
								}
							}
						}
					}
					JOINT right_clavicle
					{
						OFFSET	43.2	22.4	-70.8
						CHANNELS 3  Xrotation Yrotation Zrotation
						JOINT right_shoulder
						{
							OFFSET	93.9	-5.79999	48.7
							CHANNELS 3  Xrotation Yrotation Zrotation
							JOINT right_elbow
							{
								OFFSET	291.4	-30.8	15.2
								CHANNELS 3  Xrotation Yrotation Zrotation
								JOINT right_lowarm_twist
								{
									OFFSET	110.7	-3.89999	13.6
									CHANNELS 3  Xrotation Yrotation Zrotation
									JOINT right_hand
									{
										OFFSET	110.7	-3.89999	13.6
										CHANNELS 3  Xrotation Yrotation Zrotation
										JOINT right_ee
										{
											OFFSET	80.8	-5.10001	12.1
											CHANNELS 3  Xrotation Yrotation Zrotation
											End Site
											{
												OFFSET	1	0	0
											}
										}
									}
								}
							}
						}
					}
				}
			}
		}
	}
	JOINT left_hip
	{
		OFFSET	-82.8	-127.5	0.300001
		CHANNELS 3  Xrotation Yrotation Zrotation
		JOINT left_knee
		{
			OFFSET	-28.2	-396.7	2.2
			CHANNELS 3  Xrotation Yrotation Zrotation
			JOINT left_ankle
			{
				OFFSET	-11.7	-411.3	35.4
				CHANNELS 3  Xrotation Yrotation Zrotation
				JOINT left_toes
				{
					OFFSET	0	-60	-88.6
					CHANNELS 3  Xrotation Yrotation Zrotation
					JOINT left_foot_ee
					{
						OFFSET	-22.5	-16.5	-42.2
						CHANNELS 3  Xrotation Yrotation Zrotation
						End Site
						{
							OFFSET	1	0	0
						}
					}
				}
			}
		}
	}
	JOINT right_hip
	{
		OFFSET	82.8	-127.5	0.300001
		CHANNELS 3  Xrotation Yrotation Zrotation
		JOINT right_knee
		{
			OFFSET	28.2	-396.7	2.2
			CHANNELS 3  Xrotation Yrotation Zrotation
			JOINT right_ankle
			{
				OFFSET	11.7	-411.3	35.4
				CHANNELS 3  Xrotation Yrotation Zrotation
				JOINT right_toes
				{
					OFFSET	0	-60	-88.6
					CHANNELS 3  Xrotation Yrotation Zrotation
					JOINT right_foot_ee
					{
						OFFSET	22.5	-16.5	-42.2
						CHANNELS 3  Xrotation Yrotation Zrotation
						End Site
						{
							OFFSET	1	0	0
						}
					}
				}
			}
		}
	}
}
MOTION
Frames: 12
Frame Time: 0.02
3144.9 683.235 -1479.53 -30.9771 63.5527 25.041 4.68757 0.422496 3.38389 4.69392 0.206442 3.40389 4.70128 -0.235703 3.40199 4.68526 0.304218 3.39655 -6.12985 15.7779 -2.04268 -6.00531 30.712 0.962619 -0.0 0.0 -0.0 -1.93107 20.9396 -0.347469 -33.495 -16.2793 68.9458 0.476521 -13.282 0.0554812 -24.3338 -1.45914 2.72434 -0.318567 10.0724 2.1294 -0.0 0.0 -0.0 13.2163 26.1341 -26.1616 18.6496 27.9585 -68.0152 3.20589 57.7893 -1.76968 0.516743 -0.0179204 0.0635626 3.53712 16.2952 -16.9565 0.0 0.0 0.0 39.7449 3.99248 -8.18729 0.764478 -0.0322341 -0.112884 -17.2278 15.1219 2.60274 -26.354 0.0 0.0 -0.0 0.0 -0.0 10.4022 -3.27109 16.1408 -27.1339 -0.143129 -4.12279 37.8765 25.9803 5.45141 -6.95554 0.0 0.0 0.0 0.0 0.0 
3123.29 682.827 -1478.79 -29.7477 63.8981 23.5511 4.56667 0.386327 3.5674 4.57373 0.15869 3.58472 4.57844 -0.314255 3.57446 4.5607 0.253835 3.57925 -6.46731 17.1995 -0.037128 -6.40753 31.9602 3.3684 -0.0 0.0 -0.0 -1.79577 20.2397 -0.265688 -32.7292 -16.7177 67.8751 0.508839 -14.1477 0.0631438 -24.959 -1.51132 2.78513 -0.161221 10.0645 3.13439 -0.0 0.0 -0.0 13.3135 25.2648 -26.4885 17.4339 28.5032 -69.0766 3.19774 57.7236 -1.76279 -1.85801 0.0691602 -0.227175 3.34916 14.011 -16.7703 0.0 0.0 0.0 37.6681 4.15322 -7.5876 0.501244 -0.0209644 -0.0740621 -16.0034 15.8209 2.41925 -27.0704 0.0 0.0 -0.0 0.0 -0.0 8.92883 0.502196 15.5949 -29.138 -0.0761151 -4.42304 39.1564 13.5172 5.045 -9.10808 0.0 0.0 0.0 0.0 0.0 
3105.89 690.071 -1472.82 -28.3234 62.4479 22.2325 4.47203 0.508448 3.52367 4.47889 0.283342 3.54884 4.49153 -0.191118 3.55499 4.47409 0.372364 3.54061 -5.09995 17.3634 0.199163 -4.87942 31.8694 3.23635 -0.0 0.0 -0.0 -0.983828 19.4671 0.814043 -31.062 -17.5842 67.5336 0.525681 -14.5962 0.0673243 -25.4365 -1.55162 2.83119 -0.244994 10.2283 2.66519 -0.0 0.0 -0.0 13.3244 24.6235 -26.5853 15.9792 28.7547 -69.5609 3.06597 56.6265 -1.65205 -2.80275 0.107146 -0.341808 3.21922 12.5457 -16.5617 0.0 0.0 0.0 37.3815 3.804 -7.21438 -1.18718 0.047059 0.176108 -19.3101 13.4382 2.91213 -27.6272 0.0 0.0 -0.0 0.0 -0.0 7.90556 4.32797 15.7502 -29.4861 -0.0634083 -4.47494 36.8595 10.191 4.7477 -10.8371 0.0 0.0 0.0 0.0 0.0 
3074.46 694.741 -1464.51 -25.1566 60.0728 19.2853 4.44054 0.659337 3.33501 4.44662 0.445909 3.37015 4.46854 -0.00728325 3.39948 4.45281 0.529386 3.35807 -5.29202 18.3049 1.67469 -5.09204 32.5662 4.95637 -0.0 0.0 -0.0 -0.853471 18.9899 0.942476 -30.079 -18.204 67.3968 0.589407 -16.2766 0.084288 -26.788 -1.66777 2.95971 -0.358866 8.9001 1.38063 -0.0 0.0 -0.0 13.2403 24.9373 -26.3552 13.5017 28.8423 -69.6293 2.85193 54.6974 -1.47529 -3.79988 0.149286 -0.462111 3.6303 15.8569 -17.8269 0.0 0.0 0.0 34.6221 4.05299 -6.97663 -2.28422 0.087288 0.33966 -11.8941 15.9256 1.79159 -26.9463 0.0 0.0 -0.0 0.0 -0.0 7.87812 6.58115 15.9759 -30.1213 -0.0394007 -4.56948 37.0515 1.63555 4.62716 -9.9658 0.0 0.0 0.0 0.0 0.0 
3041.8 696.764 -1459.29 -24.5377 60.2801 18.34 4.37467 0.567794 3.23788 4.38043 0.360722 3.26741 4.39703 -0.0822538 3.28621 4.38223 0.437493 3.25803 -4.74931 19.1082 2.75543 -4.47056 33.1428 6.03211 -0.0 0.0 -0.0 -0.548485 18.5497 1.34243 -29.281 -18.7107 67.0559 0.619354 -17.0566 0.092877 -27.5205 -1.73197 3.02821 -0.263146 8.84559 1.97493 -0.0 0.0 -0.0 13.4914 24.8367 -26.9507 11.8004 29.1907 -70.2009 2.70262 53.2331 -1.35454 -4.45001 0.177888 -0.540153 3.70211 16.9944 -17.7518 0.0 0.0 0.0 33.2968 4.17157 -5.95256 -3.12736 0.116071 0.465856 -15.0239 15.758 2.26913 -27.8714 0.0 0.0 -0.0 0.0 -0.0 6.17292 7.77061 17.2312 -31.5915 0.0201744 -4.78721 36.5638 -3.42678 4.5504 -10.8137 0.0 0.0 0.0 0.0 0.0 
3020.38 703.929 -1459.99 -23.6952 59.9922 17.4936 4.28487 0.602176 3.31472 4.29089 0.390153 3.34627 4.30968 -0.0688025 3.36821 4.29415 0.463705 3.33688 -5.39652 20.5051 3.46117 -5.16278 35.3761 7.18366 -0.0 0.0 -0.0 -0.173125 17.667 1.80427 -28.5436 -19.0354 66.1531 0.6038 -16.6523 0.088367 -28.1475 -1.78763 3.08621 -0.262052 8.51196 1.84303 -0.0 0.0 -0.0 13.7854 26.5675 -27.4307 9.35265 29.1174 -70.8286 2.29938 48.7124 -1.04104 -5.30534 0.216866 -0.642329 3.84537 18.3586 -18.0432 0.0 0.0 0.0 31.0932 4.37626 -4.98379 -3.76228 0.136518 0.561152 -5.50345 15.9835 0.821516 -27.2241 0.0 0.0 -0.0 0.0 -0.0 5.7206 9.50145 16.3445 -33.6602 0.113443 -5.09093 33.1389 -10.8752 4.23076 -10.3439 0.0 0.0 0.0 0.0 0.0 
2995.7 714.782 -1457.94 -22.9842 60.8686 16.6399 4.17691 0.583499 3.25492 4.18273 0.375313 3.28541 4.20057 -0.0815435 3.30575 4.1856 0.441275 3.27721 -5.29096 20.8883 4.25055 -5.02935 35.4844 8.00975 -0.0 0.0 -0.0 -0.104718 17.3145 1.86803 -27.3328 -19.9873 65.4231 0.639051 -17.5662 0.0987382 -29.3014 -1.89172 3.19134 -0.334473 8.14926 1.22313 -0.0 0.0 -0.0 13.7173 26.7406 -27.2501 6.27839 29.5695 -70.8894 2.02612 45.1 -0.841389 -4.94276 0.200157 -0.599086 3.88799 19.5023 -17.7351 0.0 0.0 0.0 29.0886 4.18175 -3.23683 -4.38802 0.155633 0.655281 -6.27378 15.3938 0.93654 -27.7879 0.0 0.0 -0.0 0.0 -0.0 6.61736 11.5036 15.0084 -37.7669 0.330846 -5.68311 34.2456 -22.857 4.52548 -10.6417 0.0 0.0 0.0 0.0 0.0 
2976.04 717.55 -1452.64 -22.5978 61.6612 16.2196 4.2837 0.473798 3.21549 4.28941 0.268338 3.23908 4.3008 -0.175588 3.24543 4.28626 0.338896 3.23247 -7.04368 21.4372 4.98406 -7.02288 36.4412 9.42143 -0.0 0.0 -0.0 0.243232 14.7851 2.13098 -25.8397 -20.1153 64.56 0.659196 -18.0843 0.104905 -30.0579 -1.9611 3.25912 -0.45529 6.33955 -0.327046 -0.0 0.0 -0.0 13.4449 26.3024 -26.6714 2.63938 29.8928 -70.4371 1.85893 42.6365 -0.725502 -6.98029 0.297602 -0.840704 4.449 20.0479 -21.3459 0.0 0.0 0.0 27.7681 4.23102 -1.79526 -6.19474 0.205038 0.928138 1.72478 15.2493 -0.253172 -25.2656 0.0 0.0 -0.0 0.0 -0.0 5.72286 16.5343 14.5862 -40.3967 0.492196 -6.05372 30.7348 -26.9763 4.24412 -9.37794 0.0 0.0 0.0 0.0 0.0 
2957.27 721.021 -1448.01 -21.4844 63.1439 15.2168 4.1774 0.40438 3.26595 4.18331 0.195854 3.28504 4.19081 -0.260089 3.28058 4.17588 0.260995 3.28051 -7.18069 21.5131 5.81498 -7.15571 36.0307 10.2916 -0.0 0.0 -0.0 0.660967 13.9938 2.72414 -24.324 -21.0423 63.1154 0.69096 -18.8952 0.114979 -30.5948 -2.01089 3.30669 -0.450673 8.52592 0.630841 -0.0 0.0 -0.0 13.2171 26.3974 -26.1317 0.0721915 30.1736 -69.9921 1.61541 38.6648 -0.566767 -4.49225 0.179777 -0.545211 4.31294 22.1129 -19.2358 0.0 0.0 0.0 24.6227 3.92522 -0.229084 -5.32462 0.18232 0.79654 1.92805 12.9506 -0.281724 -26.7739 0.0 0.0 -0.0 0.0 -0.0 7.27007 15.3335 13.5249 -45.6234 0.862713 -6.76686 31.7991 -31.8993 4.53154 -9.67995 0.0 0.0 0.0 0.0 0.0 
2934.89 727.483 -1443.82 -19.8453 65.0121 13.1211 4.01759 0.187449 3.2798 4.02358 -0.0215185 3.28507 4.01881 -0.485494 3.24911 4.00408 0.0334479 3.28497 -9.91094 20.5729 6.41116 -10.2349 34.5445 11.535 -0.0 0.0 -0.0 1.92502 11.9379 4.64061 -22.1198 -21.172 59.5722 0.735747 -20.0252 0.1299 -30.8505 -2.03475 3.32916 -0.616788 9.13653 -0.179882 -0.0 0.0 -0.0 13.0301 24.1123 -25.9555 -2.96701 30.1284 -69.7769 1.35438 33.8567 -0.412241 -4.96839 0.201329 -0.602146 4.103 20.9128 -18.4578 0.0 0.0 0.0 20.4813 3.44986 2.74608 -4.21433 0.150431 0.629132 10.8549 10.8063 -1.54038 -25.3437 0.0 0.0 -0.0 0.0 -0.0 8.65947 19.091 12.0409 -51.4274 1.34874 -7.51624 25.2447 -28.7764 3.62516 -10.4266 0.0 0.0 0.0 0.0 0.0 
2913.39 726.232 -1439.51 -18.1511 64.9685 10.8996 4.02092 0.199725 3.39907 4.02735 -0.0168435 3.40488 4.02254 -0.497607 3.36841 4.00671 0.0402952 3.40469 -11.0775 20.9204 7.3702 -11.5373 34.8675 12.9319 -0.0 0.0 -0.0 2.48282 10.1501 5.47405 -20.6482 -21.9068 57.7201 0.781404 -21.1606 0.14596 -31.1285 -2.06082 3.3535 -0.572852 9.55176 0.279811 -0.0 0.0 -0.0 12.9595 25.0027 -25.6969 -5.93608 29.8842 -69.8969 1.16009 29.884 -0.309597 -5.81563 0.240847 -0.703011 4.33449 22.4934 -19.1684 0.0 0.0 0.0 18.7572 3.1945 4.2356 -4.73667 0.165837 0.707815 14.1397 10.3601 -1.98166 -24.3516 0.0 0.0 -0.0 0.0 -0.0 7.0393 24.1041 12.2546 -54.4484 1.63126 -7.88611 25.1189 -27.8879 3.58708 -9.881 0.0 0.0 0.0 0.0 0.0 
2896.39 728.596 -1435.32 -14.6863 65.3624 6.80363 3.84216 0.162184 3.4061 3.84861 -0.0547552 3.40951 3.84184 -0.546489 3.36593 3.82603 -0.00836682 3.40994 -11.8747 20.7136 7.46536 -12.4331 34.608 13.2307 -0.0 0.0 -0.0 3.05259 9.19983 6.4123 -19.8045 -22.0999 56.0932 0.813608 -21.9512 0.157792 -31.3673 -2.0833 3.37429 -0.70746 9.92489 -0.423444 -0.0 0.0 -0.0 12.7493 24.4906 -25.2661 -7.65517 29.6432 -70.1457 1.01445 26.6804 -0.240564 -6.30391 0.2643 -0.760877 4.32298 22.4447 -19.117 0.0 0.0 0.0 15.8457 2.73669 6.51516 -5.55104 0.188424 0.830752 18.9028 9.63446 -2.59608 -23.3077 0.0 0.0 -0.0 0.0 -0.0 5.94681 28.6628 12.3809 -57.2775 1.91329 -8.21872 23.14 -26.5488 3.30514 -10.1618 0.0 0.0 0.0 0.0 0.0 
